<svg width="16" height="16" viewBox="0 0 16 16" fill="none" xmlns="http://www.w3.org/2000/svg">
<g clip-path="url(#clip0_6_118)">
<path d="M8 16C8 14.8934 7.78667 13.8533 7.36 12.88C6.94665 11.9067 6.37999 11.06 5.65999 10.34C4.93999 9.62001 4.09335 9.05335 3.12 8.64C2.14667 8.21333 1.10667 8 0 8C1.10667 8 2.14667 7.79332 3.12 7.38001C4.09335 6.95334 4.93999 6.37999 5.65999 5.65999C6.37999 4.93999 6.94665 4.09332 7.36 3.12C7.78667 2.14667 8 1.10667 8 0C8 1.10667 8.20668 2.14667 8.61999 3.12C9.04666 4.09332 9.62001 4.93999 10.34 5.65999C11.06 6.37999 11.9067 6.95334 12.88 7.38001C13.8533 7.79332 14.8934 8 16 8C14.8934 8 13.8533 8.21333 12.88 8.64C11.9067 9.05335 11.06 9.62001 10.34 10.34C9.62001 11.06 9.04666 11.9067 8.61999 12.88C8.20668 13.8533 8 14.8934 8 16Z" fill="#3179ED"/>
</g>
<defs>
<clipPath id="clip0_6_118">
<rect width="16" height="16" fill="white"/>
</clipPath>
</defs>
</svg>
