<svg width="11" height="12" viewBox="0 0 11 12" fill="none" xmlns="http://www.w3.org/2000/svg">
<path fill-rule="evenodd" clip-rule="evenodd" d="M4.83476 3.14757V0.132552H5.45169V3.18345L9.1482 0.0358843V3.54303H10.2857V8.7426H8.86363V11.9868L5.45169 8.92423V11.8667H4.83476V8.8488L1.42211 12V8.7426H0V3.54303H1.42211V0L4.83476 3.14757ZM5.45169 8.09301L8.24743 10.602V7.41633L5.45169 4.60271V8.09301ZM2.03904 7.41633V10.588L4.83476 8.00733V4.60271L2.03904 7.41633ZM0.616929 8.1223H1.42211V7.15929L4.39886 4.16331H0.616929V8.1223ZM8.86431 7.15929V8.1223H9.66883V4.16331H5.88759L8.86431 7.15929ZM2.03904 3.54303H4.35034L2.03904 1.41047V3.54303ZM5.98461 3.54303H8.532V1.37385L5.98461 3.54303Z" fill="black"/>
</svg>
